<svg width="714" height="608" viewBox="0 0 714 608" fill="none" xmlns="http://www.w3.org/2000/svg">
<path d="M600.479 443.216C601.834 425.953 600.262 428.095 603.804 410.909C607.346 393.723 603.904 392.996 609.809 376.811C615.714 360.626 618.454 364.408 625.168 348.271C631.882 332.134 630.149 332.853 638.486 316.982C646.823 301.111 662.216 292.248 658.87 309.653C655.524 327.058 650.77 323.324 642.691 338.545C634.612 353.766 639.617 355.349 633.009 371.937C626.401 388.525 627.189 386.755 623.348 403.53C619.507 420.305 617.15 418.615 616.21 436.172C615.27 453.729 599.124 460.479 600.479 443.216Z" fill="white"/>
<path d="M555.392 465.272C538.765 461.697 537.723 461.958 520.588 457.762C503.453 453.566 499.382 456.119 482.473 453.317C465.564 450.515 466.029 445.376 448.478 441.658C430.927 437.94 428.395 437.096 411.072 433.341C393.749 429.586 394.186 427.861 376.875 427.015C359.564 426.169 353.35 410.422 371.03 411.568C388.71 412.714 390.473 411.633 407.366 416.58C424.259 421.527 423.546 422.819 441.063 424.349C458.58 425.879 459.718 429.035 476.808 432.832C493.898 436.629 495.174 437.472 512.636 441.051C530.098 444.63 532.751 443.758 549.554 446.78C566.357 449.802 572.019 468.847 555.392 465.272Z" fill="white"/>
<path d="M77.0136 521.603C92.4446 513.351 88.1486 516.824 103.274 507.728C118.399 498.632 112.766 502.023 126.921 491.928C141.076 481.833 137.495 485.658 151.594 475.337C165.693 465.016 161.425 467.944 175.751 457.269C190.077 446.594 184.474 452.681 196.931 439.975C209.388 427.269 220.177 439.514 208.543 451.972C196.909 464.43 202.302 460.825 187.45 470.768C172.598 480.711 175.808 476.82 163.299 489.311C150.79 501.802 152.707 494.871 137.366 504.246C122.025 513.621 126.831 509.418 112.112 519.18C97.3926 528.942 103.818 526.165 88.3586 534.752C72.8996 543.339 61.5826 529.855 77.0136 521.603Z" fill="white"/>
<path d="M168.622 124.277C175.211 140.423 177.914 141.911 185.53 157.471C193.146 173.031 193.093 175.557 202.333 190.805C211.573 206.053 212.242 210.95 220.792 226.473C229.342 241.996 230.59 244.169 238.073 260.483C245.556 276.797 245.194 278.314 251.612 295.059C258.03 311.804 243.624 325.729 239.551 309.057C235.478 292.385 232.729 292.43 227.986 275.661C223.243 258.892 220.446 253.305 210.079 239.667C199.712 226.029 200.258 221.567 191.823 205.989C183.388 190.411 182.405 186.902 174.385 171.912C166.365 156.922 164.546 155.971 156.745 140.444C148.944 124.917 162.033 108.131 168.622 124.277Z" fill="white"/>
<path d="M0.178633 551.724C1.43763 534.403 4.49664 527.066 19.3056 517.788C34.1146 508.51 37.5296 511.105 55.5146 511.652C73.4996 512.199 74.2946 516.364 85.9246 529.133C97.5546 541.902 103.631 545.465 99.0726 562.541C94.5146 579.617 90.5266 581.66 76.8956 592.454C63.2646 603.248 61.1816 608.547 44.0106 606.731C26.8396 604.915 25.6786 600.705 15.0206 587.218C4.36264 573.731 -1.08037 569.045 0.178633 551.724Z" fill="#FF4F00"/>
<path d="M564.337 488.469C565.942 471.224 571.86 458.58 588.587 453.03C605.314 447.48 617.223 448.332 630.686 459.324C644.149 470.316 655.744 484.076 650.523 500.335C645.302 516.594 640.486 530.28 624.132 536.007C607.778 541.734 594.317 539.842 580.981 528.21C567.645 516.578 562.732 505.714 564.337 488.469Z" fill="#FF4F00"/>
<path d="M100.523 40.3736C101.824 22.4796 108.94 9.13263 126.01 4.04363C143.08 -1.04537 154.988 -2.89638 168.311 7.99062C181.634 18.8776 189.176 30.7206 185.578 47.9826C181.98 65.2446 176.095 75.8486 159.684 82.3026C143.273 88.7566 128.932 93.0056 115.571 81.7436C102.21 70.4816 99.2217 58.2676 100.523 40.3736Z" fill="#FF4F00"/>
<path d="M206.562 381.975C205.381 364.854 205.14 348.365 216.177 334.531C227.214 320.697 241.948 313.076 258.018 307.052C274.088 301.028 292.121 297.061 308.314 303.73C324.507 310.399 338.112 320.083 350.962 332.122C363.812 344.161 371.676 359.973 369.394 377.515C367.112 395.057 361.591 408.943 353.515 424.516C345.439 440.089 326.295 448.041 311.955 457.243C297.615 466.445 280.402 467.219 263.818 461.149C247.234 455.079 234.782 442.263 223.959 429.004C213.136 415.745 207.743 399.096 206.562 381.975Z" fill="#FF4F00"/>
<path d="M9.61975 306.654C11.5197 288.825 15.2807 282.837 32.1037 277.372C48.9267 271.907 59.1357 270.329 72.6977 281.991C86.2597 293.653 95.0397 300.453 90.7817 316.921C86.5237 333.389 79.1317 340.199 62.4417 345.649C45.7517 351.099 39.6957 352.247 26.0537 340.514C12.4117 328.781 7.71975 324.483 9.61975 306.654Z" fill="#FF4F00"/>
<path d="M395.317 85.8215C396.601 68.1575 405.231 58.4485 421.263 52.3345C437.295 46.2205 453.053 46.2995 466.003 57.6135C478.953 68.9275 485.868 77.2605 481.889 94.2175C477.91 111.175 472.084 122.03 455.682 127.616C439.28 133.202 429.218 135.713 415.93 124.617C402.642 113.521 394.033 103.486 395.317 85.8215Z" fill="#FF4F00"/>
<path d="M611.181 235.697C611.683 228.785 610.922 219.448 622.832 208.312C634.742 197.176 634.12 199.648 650.829 195.529C667.538 191.41 668.89 190.247 680.837 197.328C692.784 204.409 700.922 211.296 705.419 216.852C709.916 222.408 715.397 236.559 712.434 247.191C709.471 257.823 703.204 266.779 697.082 274.94C690.96 283.101 675.199 288.565 670.104 290.969C665.009 293.373 649.801 291.642 640.461 286.337C631.121 281.032 622.68 279.183 615.466 266.909C608.252 254.635 610.679 242.609 611.181 235.697Z" fill="#FF4F00"/>
</svg>
