<svg width="714" height="608" viewBox="0 0 714 608" fill="none" xmlns="http://www.w3.org/2000/svg">
<path d="M600.919 443.437C602.274 426.174 600.702 428.316 604.244 411.13C607.786 393.944 604.344 393.217 610.249 377.032C616.154 360.847 618.894 364.629 625.608 348.492C632.322 332.355 630.589 333.074 638.926 317.203C647.263 301.332 662.656 292.469 659.31 309.874C655.964 327.279 651.21 323.545 643.131 338.766C635.052 353.987 640.057 355.57 633.449 372.158C626.841 388.746 627.629 386.976 623.788 403.751C619.947 420.526 617.59 418.836 616.65 436.393C615.71 453.95 599.564 460.7 600.919 443.437Z" fill="#27312B"/>
<path d="M555.832 465.493C539.205 461.918 538.163 462.179 521.028 457.983C503.893 453.787 499.822 456.34 482.913 453.538C466.004 450.736 466.469 445.597 448.918 441.879C431.367 438.161 428.835 437.317 411.512 433.562C394.189 429.807 394.626 428.082 377.315 427.236C360.004 426.39 353.79 410.643 371.47 411.789C389.15 412.935 390.913 411.854 407.806 416.801C424.699 421.748 423.986 423.04 441.503 424.57C459.02 426.1 460.158 429.256 477.248 433.053C494.338 436.85 495.614 437.693 513.076 441.272C530.538 444.851 533.191 443.979 549.994 447.001C566.797 450.023 572.459 469.068 555.832 465.493Z" fill="#27312B"/>
<path d="M77.4541 521.824C92.8851 513.572 88.5891 517.045 103.714 507.949C118.839 498.853 113.206 502.244 127.361 492.149C141.516 482.054 137.935 485.879 152.034 475.558C166.133 465.237 161.865 468.165 176.191 457.49C190.517 446.815 184.914 452.902 197.371 440.196C209.828 427.49 220.617 439.735 208.983 452.193C197.349 464.651 202.742 461.046 187.89 470.989C173.038 480.932 176.248 477.041 163.739 489.532C151.23 502.023 153.147 495.092 137.806 504.467C122.465 513.842 127.271 509.639 112.552 519.401C97.8331 529.163 104.258 526.386 88.7991 534.973C73.3401 543.56 62.0231 530.076 77.4541 521.824Z" fill="#27312B"/>
<path d="M169.062 124.498C175.651 140.644 178.354 142.132 185.97 157.692C193.586 173.252 193.533 175.778 202.773 191.026C212.013 206.274 212.682 211.171 221.232 226.694C229.782 242.217 231.03 244.39 238.513 260.704C245.996 277.018 245.634 278.535 252.052 295.28C258.47 312.025 244.064 325.95 239.991 309.278C235.918 292.606 233.169 292.651 228.426 275.882C223.683 259.113 220.886 253.526 210.519 239.888C200.152 226.25 200.698 221.788 192.263 206.21C183.828 190.632 182.845 187.123 174.825 172.133C166.805 157.143 164.986 156.192 157.185 140.665C149.384 125.138 162.473 108.352 169.062 124.498Z" fill="#27312B"/>
<path d="M0.619063 551.945C1.87806 534.624 4.93707 527.287 19.7461 518.009C34.5551 508.731 37.9701 511.326 55.9551 511.873C73.9401 512.42 74.7351 516.585 86.3651 529.354C97.9951 542.123 104.071 545.686 99.5131 562.762C94.9551 579.838 90.9671 581.881 77.3361 592.675C63.7051 603.469 61.6221 608.768 44.4511 606.952C27.2801 605.136 26.1191 600.926 15.4611 587.439C4.80307 573.952 -0.639937 569.266 0.619063 551.945Z" fill="#FF4F00"/>
<path d="M564.777 488.691C566.382 471.446 572.3 458.802 589.027 453.252C605.754 447.702 617.663 448.554 631.126 459.546C644.589 470.538 656.184 484.298 650.963 500.557C645.742 516.816 640.926 530.502 624.572 536.229C608.218 541.956 594.757 540.064 581.421 528.432C568.085 516.8 563.172 505.936 564.777 488.691Z" fill="#FF4F00"/>
<path d="M100.963 40.5951C102.264 22.7011 109.38 9.35406 126.45 4.26506C143.52 -0.823938 155.428 -2.67494 168.751 8.21206C182.074 19.0991 189.616 30.9421 186.018 48.2041C182.42 65.4661 176.535 76.0701 160.124 82.5241C143.713 88.9781 129.372 93.2271 116.011 81.9651C102.65 70.7031 99.6621 58.4891 100.963 40.5951Z" fill="#FF4F00"/>
<path d="M207.002 382.197C205.821 365.076 205.58 348.587 216.617 334.753C227.654 320.919 242.388 313.298 258.458 307.274C274.528 301.25 292.561 297.283 308.754 303.952C324.947 310.621 338.552 320.305 351.402 332.344C364.252 344.383 372.116 360.195 369.834 377.737C367.552 395.279 362.031 409.165 353.955 424.738C345.879 440.311 326.735 448.263 312.395 457.465C298.055 466.667 280.842 467.441 264.258 461.371C247.674 455.301 235.222 442.485 224.399 429.226C213.576 415.967 208.183 399.318 207.002 382.197Z" fill="#FF4F00"/>
<path d="M10.0602 306.875C11.9602 289.046 15.7212 283.058 32.5442 277.593C49.3672 272.128 59.5762 270.55 73.1382 282.212C86.7002 293.874 95.4802 300.674 91.2222 317.142C86.9642 333.61 79.5722 340.42 62.8822 345.87C46.1922 351.32 40.1362 352.468 26.4942 340.735C12.8522 329.002 8.16018 324.704 10.0602 306.875Z" fill="#FF4F00"/>
<path d="M395.757 86.043C397.041 68.379 405.671 58.67 421.703 52.556C437.735 46.442 453.493 46.521 466.443 57.835C479.393 69.149 486.308 77.482 482.329 94.439C478.35 111.396 472.524 122.251 456.122 127.837C439.72 133.423 429.658 135.934 416.37 124.838C403.082 113.742 394.473 103.707 395.757 86.043Z" fill="#FF4F00"/>
<path d="M611.621 235.918C612.123 229.006 611.362 219.669 623.272 208.533C635.182 197.397 634.56 199.869 651.269 195.75C667.978 191.631 669.33 190.468 681.277 197.549C693.224 204.63 701.362 211.517 705.859 217.073C710.356 222.629 715.837 236.78 712.874 247.412C709.911 258.044 703.644 267 697.522 275.161C691.4 283.322 675.639 288.786 670.544 291.19C665.449 293.594 650.241 291.863 640.901 286.558C631.561 281.253 623.12 279.404 615.906 267.13C608.692 254.856 611.119 242.83 611.621 235.918Z" fill="#FF4F00"/>
</svg>
